<?xml version="1.0" encoding="utf-8"?>
<!-- Generator: Adobe Illustrator 15.1.0, SVG Export Plug-In . SVG Version: 6.00 Build 0)  -->
<!DOCTYPE svg PUBLIC "-//W3C//DTD SVG 1.1//EN" "http://www.w3.org/Graphics/SVG/1.1/DTD/svg11.dtd">
<svg version="1.1" id="Layer_1" xmlns="http://www.w3.org/2000/svg" xmlns:xlink="http://www.w3.org/1999/xlink" x="0px" y="0px"
	 width="86px" height="86px" viewBox="0 0 86 86" enable-background="new 0 0 86 86" xml:space="preserve">
<linearGradient id="SVGID_1_" gradientUnits="userSpaceOnUse" x1="0.2998" y1="43" x2="85.7002" y2="43">
	<stop  offset="0" style="stop-color:#1A677D"/>
	<stop  offset="1" style="stop-color:#20B2C9"/>
</linearGradient>
<path fill="url(#SVGID_1_)" d="M84.276,0.3H43C19.417,0.3,0.3,19.418,0.3,43v41.276c0,0.786,0.638,1.424,1.423,1.424H43
	c23.583,0,42.7-19.118,42.7-42.7V1.723C85.7,0.938,85.063,0.3,84.276,0.3z"/>
<circle opacity="0.25" fill="#FFFFFF" cx="43.156" cy="42.865" r="35"/>
<g>
	<path fill="#FFFFFF" d="M43.842,38.983c-0.444,1.307-1.396,2.39-2.855,3.25s-3.16,1.289-5.103,1.289v-4.044
		c3.208,0,4.812-0.885,4.812-2.654c0-1.172-0.445-2.965-1.332-5.383l-5.578-15.211h4.312l4.861,13.546l4.379-13.546h4.313
		L43.842,38.983z"/>
</g>
<g>
	<path fill="none" stroke="#FFFFFF" stroke-miterlimit="10" d="M61.199,46.229c-0.033-4.54-3.73-8.187-8.271-8.155"/>
	<path fill="none" stroke="#FFFFFF" stroke-miterlimit="10" d="M63.662,46.212c-0.041-5.9-4.849-10.641-10.752-10.602"/>
	<path fill="none" stroke="#FFFFFF" stroke-miterlimit="10" d="M58.322,46.249c-0.018-2.949-2.424-5.321-5.374-5.3"/>
</g>
<text transform="matrix(1 0 0 1 102.25 163.75)" font-family="'LucidaHandwriting-Italic'" font-size="48">Y</text>
<path fill="#FFFFFF" d="M24.435,50.221c-0.469-0.324-0.942-0.487-1.417-0.487c-0.765,0-1.432,0.352-2.002,1.054
	c-0.571,0.704-0.854,1.55-0.854,2.54v6.962h-2.154V48.147h2.154v1.938c0.785-1.442,1.953-2.165,3.502-2.165
	c0.386,0,0.94,0.067,1.666,0.204L24.435,50.221z"/>
<path fill="#FFFFFF" d="M33.719,58.895c-0.861,1.08-2.181,1.618-3.956,1.618c-0.954,0-1.778-0.343-2.478-1.034
	c-0.7-0.693-1.049-1.553-1.049-2.58c0-1.232,0.538-2.273,1.616-3.123c1.075-0.851,2.45-1.275,4.121-1.275
	c0.454,0,0.967,0.098,1.541,0.293c0-1.964-0.876-2.945-2.629-2.945c-1.346,0-2.382,0.362-3.106,1.088l-0.907-1.802
	c0.407-0.334,0.973-0.619,1.694-0.855c0.722-0.238,1.412-0.358,2.07-0.358c1.76,0,3.041,0.4,3.837,1.202
	c0.797,0.801,1.196,2.073,1.196,3.819v4.354c0,1.065,0.317,1.775,0.952,2.131v1.077c-0.876,0-1.532-0.126-1.966-0.374
	C34.219,59.88,33.907,59.468,33.719,58.895z M33.515,54.324c-0.68-0.15-1.156-0.226-1.429-0.226c-1.087,0-1.976,0.278-2.664,0.839
	c-0.688,0.559-1.031,1.22-1.031,1.982c0,1.263,0.744,1.896,2.233,1.896c1.089,0,2.052-0.519,2.89-1.555V54.324z"/>
<path fill="#FFFFFF" d="M46.755,60.275v-0.895c-0.747,0.749-1.835,1.123-3.264,1.123c-1.519,0-2.751-0.545-3.697-1.633
	c-0.943-1.089-1.417-2.538-1.417-4.354c0-1.821,0.544-3.377,1.633-4.665s2.383-1.933,3.888-1.933c1.256,0,2.207,0.295,2.856,0.884
	V43.17h2.155v17.105H46.755z M46.755,50.958c-0.543-0.816-1.287-1.225-2.232-1.225c-1.156,0-2.091,0.431-2.806,1.292
	c-0.714,0.863-1.07,1.958-1.07,3.288c0,2.924,1.33,4.388,3.991,4.388c0.34,0,0.747-0.106,1.224-0.323
	c0.477-0.216,0.774-0.443,0.895-0.686V50.958z"/>
<polygon fill="#FFFFFF" points="53.037,60.289 53.037,49.96 51.37,49.96 51.37,48.147 55.191,48.147 55.191,60.289 "/>
<path fill="#FFFFFF" d="M54.216,43.556c0.369,0,0.685,0.131,0.946,0.392c0.261,0.26,0.392,0.572,0.392,0.935
	c0,0.37-0.131,0.685-0.392,0.945c-0.262,0.263-0.577,0.394-0.946,0.394c-0.363,0-0.676-0.131-0.936-0.394
	c-0.261-0.261-0.392-0.575-0.392-0.945s0.129-0.685,0.385-0.94C53.53,43.685,53.845,43.556,54.216,43.556z"/>
<path fill="#FFFFFF" d="M57.819,54.189c0-1.874,0.506-3.389,1.514-4.541c1.01-1.152,2.337-1.729,3.985-1.729
	c1.736,0,3.086,0.554,4.046,1.661c0.96,1.105,1.44,2.644,1.44,4.608c0,1.957-0.491,3.501-1.475,4.63
	c-0.982,1.13-2.32,1.693-4.012,1.693c-1.73,0-3.08-0.566-4.049-1.71C58.304,57.662,57.819,56.124,57.819,54.189z M60.086,54.189
	c0,3.045,1.077,4.568,3.232,4.568c1.004,0,1.793-0.408,2.363-1.225s0.855-1.931,0.855-3.344c0-3.009-1.072-4.512-3.219-4.512
	c-0.983,0-1.767,0.399-2.354,1.201C60.38,51.681,60.086,52.783,60.086,54.189z"/>
</svg>
